<svg xmlns="http://www.w3.org/2000/svg" xmlns:xlink="http://www.w3.org/1999/xlink" xmlns:svgjs="http://svgjs.dev/svgjs" version="1.1" viewBox="348.26 -0.5 1249.01 1249.01"><g transform="matrix(1,0,0,1,-1.2121212121212466,0.504858299595071)"><svg xmlns="http://www.w3.org/2000/svg" xmlns:xlink="http://www.w3.org/1999/xlink" viewBox="0 0 396 247" data-background-color="#ddcaea" preserveAspectRatio="xMidYMid meet" height="1247" width="2000"><g id="tight-bounds" transform="matrix(1,0,0,1,0.2400000000000091,-0.09999999999999432)"><svg viewBox="0 0 395.52 247.2" height="247.2" width="395.52"><g><svg/></g><g><svg viewBox="0 0 395.52 247.2" height="247.2" width="395.52"><g transform="matrix(1,0,0,1,144.2130357039187,47.215199999999996)"><svg viewBox="0 0 107.09392859216254 152.7696" height="152.7696" width="107.09392859216254"><g><svg viewBox="0 0 107.09392859216254 152.7696" height="152.7696" width="107.09392859216254"><g><svg viewBox="0 0 107.09392859216254 152.7696" height="152.7696" width="107.09392859216254"><g><svg viewBox="0 0 107.09392859216254 152.7696" height="152.7696" width="107.09392859216254"><g id="textblocktransform"><svg viewBox="0 0 107.09392859216254 152.7696" height="152.7696" width="107.09392859216254" id="textblock"><g><svg viewBox="0 0 107.09392859216254 152.7696" height="152.7696" width="107.09392859216254"><g transform="matrix(1,0,0,1,0,0)"><svg width="107.09392859216254" viewBox="5 -34.45 24.15 34.45" height="152.7696" data-palette-color="#06b6d4"><path d="M29.15-34.45L29.15 0 22.8 0 8.8-29.25Q9.1-25.8 9.28-22.88 9.45-19.95 9.45-15.8L9.45-15.8 9.45 0 5 0 5-34.45 11.2-34.45 25.35-5.15Q25.2-6.45 24.95-9.7 24.7-12.95 24.7-15.65L24.7-15.65 24.7-34.45 29.15-34.45Z" opacity="1" transform="matrix(1,0,0,1,0,0)" fill="#06b6d4" class="wordmark-text-0" data-fill-palette-color="primary" id="text-0"/></svg></g></svg></g></svg></g></svg></g></svg></g></svg></g></svg></g><path d="M69.006 41.215L69.006 0 316.206 0 316.206 247.2 69.006 247.2 69.006 205.985 82.783 205.985 82.783 233.423 302.429 233.423 302.429 13.777 82.783 13.777 82.783 41.215Z" fill="#06b6d4" stroke="transparent" data-fill-palette-color="primary"/></svg></g><defs/></svg><rect width="395.52" height="247.2" fill="none" stroke="none" visibility="hidden"/></g></svg></g></svg>